<svg width="54" height="30" viewBox="0 0 54 30" fill="none" xmlns="http://www.w3.org/2000/svg">
<path opacity="0.1" d="M25.312 14.936C25.312 17.048 24.992 19 24.352 20.792C23.712 22.552 22.832 24.088 21.712 25.4C20.592 26.68 19.264 27.688 17.728 28.424C16.192 29.128 14.528 29.48 12.736 29.48C10.944 29.48 9.28 29.128 7.744 28.424C6.24 27.688 4.928 26.68 3.808 25.4C2.688 24.088 1.808 22.552 1.168 20.792C0.528 19 0.208 17.048 0.208 14.936C0.208 12.824 0.528 10.888 1.168 9.128C1.808 7.336 2.688 5.8 3.808 4.52C4.928 3.208 6.24 2.184 7.744 1.448C9.28 0.712 10.944 0.344 12.736 0.344C14.528 0.344 16.192 0.712 17.728 1.448C19.264 2.184 20.592 3.208 21.712 4.52C22.832 5.8 23.712 7.336 24.352 9.128C24.992 10.888 25.312 12.824 25.312 14.936ZM17.536 14.936C17.536 12.696 17.088 10.888 16.192 9.512C15.296 8.104 14.144 7.4 12.736 7.4C11.296 7.4 10.128 8.104 9.232 9.512C8.336 10.888 7.888 12.696 7.888 14.936C7.888 17.176 8.336 18.984 9.232 20.36C10.128 21.736 11.296 22.424 12.736 22.424C14.144 22.424 15.296 21.736 16.192 20.36C17.088 18.984 17.536 17.176 17.536 14.936ZM29.2604 29C29.2604 27.496 29.3724 26.152 29.5964 24.968C29.8524 23.784 30.2684 22.696 30.8444 21.704C31.4204 20.712 32.1724 19.8 33.1004 18.968C34.0604 18.136 35.2444 17.336 36.6524 16.568C38.1564 15.768 39.4044 15.096 40.3964 14.552C41.4204 14.008 42.2364 13.528 42.8444 13.112C43.4524 12.696 43.8844 12.312 44.1404 11.96C44.3964 11.608 44.5244 11.208 44.5244 10.76C44.5244 9.864 44.1884 9.144 43.5164 8.6C42.8764 8.056 41.9644 7.784 40.7804 7.784C39.4364 7.784 38.2684 8.12 37.2764 8.792C36.2844 9.432 35.3244 10.28 34.3964 11.336L29.5484 5.672C30.0604 5.096 30.7324 4.536 31.5644 3.992C32.4284 3.448 33.4044 2.968 34.4924 2.552C35.5804 2.104 36.7644 1.752 38.0444 1.496C39.3564 1.24 40.7164 1.112 42.1244 1.112C45.5804 1.112 48.2364 1.864 50.0924 3.368C51.9484 4.872 52.8764 6.904 52.8764 9.464C52.8764 10.52 52.7004 11.464 52.3484 12.296C52.0284 13.128 51.5964 13.88 51.0524 14.552C50.5084 15.192 49.8844 15.768 49.1804 16.28C48.5084 16.76 47.8204 17.208 47.1164 17.624C46.6364 17.912 46.1084 18.216 45.5324 18.536C44.9884 18.856 44.4444 19.208 43.9004 19.592C43.3564 19.944 42.8444 20.328 42.3644 20.744C41.8844 21.16 41.4684 21.608 41.1164 22.088H53.4044V29H29.2604Z" fill="#0E1F51"/>
</svg>
