<svg width="54" height="37" viewBox="0 0 54 37" fill="none" xmlns="http://www.w3.org/2000/svg">
<path opacity="0.1" d="M25.312 14.936C25.312 17.048 24.992 19 24.352 20.792C23.712 22.552 22.832 24.088 21.712 25.4C20.592 26.68 19.264 27.688 17.728 28.424C16.192 29.128 14.528 29.48 12.736 29.48C10.944 29.48 9.28 29.128 7.744 28.424C6.24 27.688 4.928 26.68 3.808 25.4C2.688 24.088 1.808 22.552 1.168 20.792C0.528 19 0.208 17.048 0.208 14.936C0.208 12.824 0.528 10.888 1.168 9.128C1.808 7.336 2.688 5.8 3.808 4.52C4.928 3.208 6.24 2.184 7.744 1.448C9.28 0.712 10.944 0.344 12.736 0.344C14.528 0.344 16.192 0.712 17.728 1.448C19.264 2.184 20.592 3.208 21.712 4.52C22.832 5.8 23.712 7.336 24.352 9.128C24.992 10.888 25.312 12.824 25.312 14.936ZM17.536 14.936C17.536 12.696 17.088 10.888 16.192 9.512C15.296 8.104 14.144 7.4 12.736 7.4C11.296 7.4 10.128 8.104 9.232 9.512C8.336 10.888 7.888 12.696 7.888 14.936C7.888 17.176 8.336 18.984 9.232 20.36C10.128 21.736 11.296 22.424 12.736 22.424C14.144 22.424 15.296 21.736 16.192 20.36C17.088 18.984 17.536 17.176 17.536 14.936ZM46.3964 17.624C47.3884 17.816 48.2844 18.168 49.0844 18.68C49.9164 19.16 50.6204 19.784 51.1964 20.552C51.8044 21.288 52.2684 22.152 52.5884 23.144C52.9084 24.104 53.0684 25.144 53.0684 26.264C53.0684 27.768 52.7644 29.112 52.1564 30.296C51.5484 31.512 50.6684 32.536 49.5164 33.368C48.3964 34.232 47.0364 34.888 45.4364 35.336C43.8364 35.816 42.0444 36.056 40.0604 36.056C35.2284 36.056 31.4364 34.632 28.6844 31.784L32.8124 26.312C33.6444 27.208 34.6204 27.896 35.7404 28.376C36.8604 28.824 38.1884 29.048 39.7244 29.048C43.3084 29.048 45.1004 27.72 45.1004 25.064C45.1004 23.624 44.5564 22.536 43.4684 21.8C42.4124 21.064 40.7324 20.696 38.4284 20.696H37.0364V15.176H38.6204C40.3804 15.176 41.7564 14.808 42.7484 14.072C43.7724 13.336 44.2844 12.36 44.2844 11.144C44.2844 10.088 43.9164 9.288 43.1804 8.744C42.4444 8.2 41.4684 7.928 40.2524 7.928C38.9404 7.928 37.7404 8.248 36.6524 8.888C35.5964 9.496 34.7004 10.376 33.9644 11.528L29.1164 5.96C29.6284 5.288 30.3004 4.664 31.1324 4.088C31.9964 3.512 32.9564 3.032 34.0124 2.648C35.0684 2.232 36.2044 1.912 37.4204 1.688C38.6364 1.464 39.8684 1.352 41.1164 1.352C42.8124 1.352 44.3644 1.56 45.7724 1.976C47.1804 2.36 48.3804 2.936 49.3724 3.704C50.3964 4.44 51.1804 5.336 51.7244 6.392C52.2684 7.416 52.5404 8.568 52.5404 9.848C52.5404 10.808 52.3804 11.72 52.0604 12.584C51.7724 13.448 51.3564 14.232 50.8124 14.936C50.2684 15.64 49.6124 16.232 48.8444 16.712C48.1084 17.16 47.2924 17.464 46.3964 17.624Z" fill="#0E1F51"/>
</svg>
