<svg width="54" height="36" viewBox="0 0 54 36" fill="none" xmlns="http://www.w3.org/2000/svg">
<path opacity="0.1" d="M25.312 14.936C25.312 17.048 24.992 19 24.352 20.792C23.712 22.552 22.832 24.088 21.712 25.4C20.592 26.68 19.264 27.688 17.728 28.424C16.192 29.128 14.528 29.48 12.736 29.48C10.944 29.48 9.28 29.128 7.744 28.424C6.24 27.688 4.928 26.68 3.808 25.4C2.688 24.088 1.808 22.552 1.168 20.792C0.528 19 0.208 17.048 0.208 14.936C0.208 12.824 0.528 10.888 1.168 9.128C1.808 7.336 2.688 5.8 3.808 4.52C4.928 3.208 6.24 2.184 7.744 1.448C9.28 0.712 10.944 0.344 12.736 0.344C14.528 0.344 16.192 0.712 17.728 1.448C19.264 2.184 20.592 3.208 21.712 4.52C22.832 5.8 23.712 7.336 24.352 9.128C24.992 10.888 25.312 12.824 25.312 14.936ZM17.536 14.936C17.536 12.696 17.088 10.888 16.192 9.512C15.296 8.104 14.144 7.4 12.736 7.4C11.296 7.4 10.128 8.104 9.232 9.512C8.336 10.888 7.888 12.696 7.888 14.936C7.888 17.176 8.336 18.984 9.232 20.36C10.128 21.736 11.296 22.424 12.736 22.424C14.144 22.424 15.296 21.736 16.192 20.36C17.088 18.984 17.536 17.176 17.536 14.936ZM41.6924 35.096V28.52H28.4444V21.656L44.1404 1.592H49.3724V21.608H53.5964V28.52H49.3724V35.096H41.6924ZM36.0764 21.608H42.5564V13.112L36.0764 21.608Z" fill="#0E1F51"/>
</svg>
