<svg width="16" height="16" viewBox="0 0 16 16" fill="none" xmlns="http://www.w3.org/2000/svg">
<path fill-rule="evenodd" clip-rule="evenodd" d="M11.4167 0.445557H4.91675C2.67309 0.445557 0.854248 2.2644 0.854248 4.50806V11.0081C0.854248 13.2517 2.67309 15.0706 4.91675 15.0706H11.4167C13.6604 15.0706 15.4792 13.2517 15.4792 11.0081V4.50806C15.4792 2.2644 13.6604 0.445557 11.4167 0.445557ZM14.0574 11.0081C14.0529 12.4645 12.8732 13.6442 11.4167 13.6487H4.91675C3.46022 13.6442 2.28058 12.4645 2.27612 11.0081V4.50806C2.28058 3.05153 3.46022 1.87189 4.91675 1.86743H11.4167C12.8732 1.87189 14.0529 3.05153 14.0574 4.50806V11.0081ZM12.0261 4.71118C12.4749 4.71118 12.8386 4.34741 12.8386 3.89868C12.8386 3.44995 12.4749 3.08618 12.0261 3.08618C11.5774 3.08618 11.2136 3.44995 11.2136 3.89868C11.2136 4.34741 11.5774 4.71118 12.0261 4.71118ZM8.16675 4.10181C6.14746 4.10181 4.5105 5.73877 4.5105 7.75806C4.5105 9.77736 6.14746 11.4143 8.16675 11.4143C10.1861 11.4143 11.823 9.77736 11.823 7.75806C11.8252 6.78769 11.4406 5.85646 10.7545 5.17031C10.0683 4.48416 9.13712 4.09965 8.16675 4.10181ZM5.93237 7.75806C5.93237 8.99208 6.93272 9.99243 8.16675 9.99243C9.40077 9.99243 10.4011 8.99208 10.4011 7.75806C10.4011 6.52403 9.40077 5.52368 8.16675 5.52368C6.93272 5.52368 5.93237 6.52403 5.93237 7.75806Z" fill="#FF3E54"/>
</svg>
