<svg width="16" height="16" viewBox="0 0 16 16" fill="none" xmlns="http://www.w3.org/2000/svg">
<path fill-rule="evenodd" clip-rule="evenodd" d="M2.073 0.445557C1.3999 0.445557 0.854248 0.991207 0.854248 1.66431V13.8518C0.854248 14.5249 1.3999 15.0706 2.073 15.0706H14.2605C14.9336 15.0706 15.4792 14.5249 15.4792 13.8518V1.66431C15.4792 0.991207 14.9336 0.445557 14.2605 0.445557H2.073ZM5.33987 3.69777C5.34444 4.47472 4.76287 4.95346 4.07275 4.95003C3.42262 4.9466 2.8559 4.42902 2.85933 3.69891C2.86276 3.01222 3.40548 2.46035 4.11046 2.47635C4.82571 2.49235 5.34444 3.01679 5.33987 3.69777ZM8.394 5.93949H6.34651H6.34537V12.8944H8.50938V12.7321C8.50938 12.4234 8.50914 12.1147 8.50889 11.8058C8.50824 10.9821 8.50751 10.1575 8.51174 9.33406C8.51287 9.13411 8.52197 8.92619 8.5734 8.73533C8.76645 8.02236 9.40752 7.56192 10.1228 7.6751C10.5821 7.74701 10.8859 8.01326 11.0139 8.44633C11.0928 8.71705 11.1282 9.00841 11.1316 9.29068C11.1409 10.1419 11.1396 10.993 11.1383 11.8443C11.1378 12.1447 11.1373 12.4454 11.1373 12.7458V12.8932H13.3082V12.7264C13.3082 12.3592 13.3081 11.992 13.3078 11.6248C13.3074 10.7071 13.3069 9.78939 13.3094 8.87134C13.3105 8.45656 13.266 8.04755 13.1643 7.6465C13.0123 7.05004 12.6981 6.55645 12.1874 6.20001C11.8252 5.94634 11.4276 5.78295 10.9831 5.76467C10.9325 5.76257 10.8815 5.75981 10.8302 5.75704C10.6029 5.74476 10.372 5.73228 10.1547 5.77609C9.53313 5.90063 8.98705 6.18514 8.57454 6.68669C8.5266 6.74422 8.47972 6.80264 8.40977 6.88982L8.394 6.90956V5.93949ZM3.03308 12.8966H5.18684V5.94401H3.03308V12.8966Z" fill="#FF3E54"/>
</svg>
