<svg width="120" height="28" viewBox="0 0 120 28" fill="none" xmlns="http://www.w3.org/2000/svg">
<path d="M35.2207 18.2868C35.2207 18.8624 35.1026 19.3046 34.8663 19.6136C34.6361 19.9226 34.2514 20.0771 33.7122 20.0771C33.2033 20.0771 32.8428 19.9226 32.6307 19.6136C32.4248 19.3046 32.3218 18.8624 32.3218 18.2868V8.6812C32.3218 8.10564 32.4248 7.66338 32.6307 7.3544C32.8428 7.04542 33.2033 6.89093 33.7122 6.89093C34.2514 6.89093 34.6361 7.04542 34.8663 7.3544C35.1026 7.66338 35.2207 8.10564 35.2207 8.6812V18.2868Z" fill="white"/>
<path d="M36.1006 15.4969C36.1006 14.8547 36.2036 14.2489 36.4096 13.6794C36.6216 13.1038 36.9366 12.601 37.3547 12.1708C37.7788 11.7407 38.3059 11.3984 38.936 11.144C39.5721 10.8894 40.3172 10.7623 41.1715 10.7623C41.9894 10.7623 42.7134 10.8804 43.3435 11.1167C43.9735 11.3529 44.5036 11.6831 44.9337 12.1073C45.3639 12.5252 45.6911 13.025 45.9152 13.6066C46.1394 14.1822 46.2515 14.8123 46.2515 15.4969C46.2515 16.1331 46.1454 16.7358 45.9334 17.3054C45.7214 17.8687 45.4033 18.3656 44.9792 18.7957C44.5551 19.2198 44.025 19.559 43.3889 19.8136C42.7527 20.0619 42.0136 20.1861 41.1715 20.1861C40.3415 20.1861 39.6085 20.068 38.9723 19.8317C38.3422 19.5894 37.8121 19.2592 37.382 18.8411C36.9579 18.4171 36.6367 17.9203 36.4187 17.3508C36.2066 16.7752 36.1006 16.1573 36.1006 15.4969ZM39.1268 15.4969C39.1268 15.8968 39.1631 16.2785 39.2358 16.6419C39.3085 16.9993 39.4237 17.3144 39.5812 17.5871C39.7447 17.8597 39.9568 18.0778 40.2173 18.2413C40.4778 18.3988 40.7959 18.4776 41.1715 18.4776C41.5168 18.4776 41.8167 18.405 42.0711 18.2595C42.3317 18.1142 42.5437 17.9112 42.7073 17.6507C42.8769 17.3902 43.0042 17.0781 43.0889 16.7147C43.1738 16.3451 43.2162 15.9392 43.2162 15.4969C43.2162 15.097 43.1768 14.7184 43.0981 14.3609C43.0254 13.9975 42.9073 13.6794 42.7436 13.4067C42.5801 13.1281 42.3681 12.9099 42.1075 12.7525C41.8531 12.5889 41.541 12.5071 41.1715 12.5071C40.8019 12.5071 40.4869 12.5858 40.2264 12.7434C39.9659 12.9009 39.7539 13.1159 39.5902 13.3886C39.4267 13.6612 39.3085 13.9793 39.2358 14.3428C39.1631 14.7063 39.1268 15.091 39.1268 15.4969Z" fill="white"/>
<path d="M53.7111 18.3231C53.5475 18.626 53.3476 18.8835 53.1113 19.0956C52.8811 19.3076 52.6236 19.4833 52.3389 19.6227C52.0602 19.7559 51.7603 19.8559 51.4392 19.9226C51.1241 19.9831 50.8001 20.0134 50.4669 20.0134C49.9094 20.0134 49.4006 19.9135 48.9401 19.7135C48.4797 19.5136 48.0829 19.2258 47.7497 18.8502C47.4225 18.4685 47.1681 18.002 46.9863 17.4507C46.8045 16.8994 46.7136 16.2693 46.7136 15.5605C46.7136 14.8941 46.7985 14.27 46.9681 13.6884C47.1377 13.1068 47.3831 12.601 47.7042 12.1708C48.0314 11.7407 48.4312 11.4014 48.9038 11.153C49.3763 10.9046 49.9156 10.7804 50.5214 10.7804C51.212 10.7804 51.8239 10.9137 52.3571 11.1802C52.8963 11.4468 53.3598 11.883 53.7475 12.4888V12.2526C53.7475 11.8164 53.8656 11.4893 54.1019 11.2711C54.3442 11.047 54.6775 10.9349 55.1016 10.9349C55.356 10.9349 55.571 10.9773 55.7468 11.0621C55.9224 11.1409 56.0618 11.262 56.1647 11.4257C56.2678 11.5832 56.3405 11.7801 56.3829 12.0164C56.4313 12.2465 56.4555 12.5101 56.4555 12.8069V18.8957C56.4555 19.6348 56.3617 20.2951 56.1739 20.8767C55.9921 21.4583 55.7074 21.9491 55.3196 22.349C54.9319 22.7488 54.4351 23.0517 53.8292 23.2577C53.2234 23.4697 52.5025 23.5758 51.6664 23.5758C51.0788 23.5758 50.5577 23.5485 50.1033 23.4939C49.655 23.4456 49.2673 23.3698 48.9401 23.2668C48.613 23.1516 48.3646 23.0245 48.1949 22.8851C48.0314 22.7458 47.9496 22.564 47.9496 22.3399C47.9496 22.2126 47.9677 22.0915 48.0041 21.9763C48.0405 21.8613 48.095 21.7583 48.1676 21.6674C48.2464 21.5825 48.3464 21.5129 48.4676 21.4583C48.5948 21.4099 48.7492 21.3857 48.931 21.3857C49.1249 21.3857 49.3188 21.3978 49.5126 21.422C49.7125 21.4462 49.9186 21.4705 50.1306 21.4947C50.3487 21.525 50.5759 21.5522 50.8122 21.5765C51.0545 21.6007 51.315 21.6129 51.5937 21.6129C51.9269 21.6129 52.2238 21.5795 52.4843 21.5129C52.7448 21.4462 52.9659 21.3281 53.1477 21.1584C53.3294 20.9888 53.4688 20.7616 53.5657 20.4769C53.6627 20.1982 53.7111 19.8408 53.7111 19.4045V18.3231ZM53.7111 15.4969C53.7111 15.0546 53.6778 14.6517 53.6112 14.2883C53.5506 13.9247 53.4445 13.6158 53.2931 13.3613C53.1416 13.1008 52.9387 12.9009 52.6842 12.7615C52.4297 12.6161 52.1117 12.5434 51.73 12.5434C51.3544 12.5434 51.0424 12.6191 50.794 12.7706C50.5517 12.922 50.3578 13.1311 50.2124 13.3976C50.067 13.6642 49.964 13.9762 49.9034 14.3337C49.8489 14.6911 49.8217 15.0728 49.8217 15.4787C49.8217 16.4056 49.9852 17.1024 50.3124 17.5688C50.6395 18.0354 51.1151 18.2686 51.7391 18.2686C52.0299 18.2626 52.2935 18.208 52.5297 18.105C52.772 17.996 52.9811 17.8294 53.1567 17.6052C53.3325 17.381 53.4688 17.0963 53.5657 16.7509C53.6627 16.4056 53.7111 15.9876 53.7111 15.4969Z" fill="white"/>
<path d="M57.29 15.4969C57.29 14.8547 57.393 14.2489 57.599 13.6794C57.8111 13.1038 58.1261 12.601 58.5441 12.1708C58.9682 11.7407 59.4953 11.3984 60.1253 11.144C60.7615 10.8894 61.5067 10.7623 62.361 10.7623C63.1788 10.7623 63.9028 10.8804 64.5328 11.1167C65.1629 11.3529 65.693 11.6831 66.1232 12.1073C66.5533 12.5252 66.8805 13.025 67.1046 13.6066C67.3288 14.1822 67.4409 14.8123 67.4409 15.4969C67.4409 16.1331 67.3349 16.7358 67.1228 17.3054C66.9107 17.8687 66.5927 18.3656 66.1686 18.7957C65.7445 19.2198 65.2144 19.559 64.5783 19.8136C63.9422 20.0619 63.203 20.1861 62.361 20.1861C61.5309 20.1861 60.7978 20.068 60.1617 19.8317C59.5316 19.5894 59.0015 19.2592 58.5714 18.8411C58.1473 18.4171 57.8262 17.9203 57.6081 17.3508C57.396 16.7752 57.29 16.1573 57.29 15.4969ZM60.3162 15.4969C60.3162 15.8968 60.3525 16.2785 60.4253 16.6419C60.498 16.9993 60.613 17.3144 60.7706 17.5871C60.9342 17.8597 61.1462 18.0778 61.4067 18.2413C61.6672 18.3988 61.9853 18.4776 62.361 18.4776C62.7063 18.4776 63.0061 18.405 63.2606 18.2595C63.5211 18.1142 63.7332 17.9112 63.8967 17.6507C64.0664 17.3902 64.1936 17.0781 64.2784 16.7147C64.3632 16.3451 64.4057 15.9392 64.4057 15.4969C64.4057 15.097 64.3663 14.7184 64.2875 14.3609C64.2148 13.9975 64.0966 13.6794 63.9331 13.4067C63.7695 13.1281 63.5574 12.9099 63.297 12.7525C63.0425 12.5889 62.7305 12.5071 62.361 12.5071C61.9914 12.5071 61.6763 12.5858 61.4158 12.7434C61.1553 12.9009 60.9432 13.1159 60.7797 13.3886C60.6161 13.6612 60.498 13.9793 60.4253 14.3428C60.3525 14.7063 60.3162 15.091 60.3162 15.4969Z" fill="white"/>
<path d="M71.3383 7.69973C71.3383 7.89967 71.2928 8.07838 71.2019 8.2359C71.111 8.38736 70.9929 8.51456 70.8475 8.61762C70.7021 8.7206 70.5325 8.79931 70.3386 8.85383C70.1508 8.9023 69.957 8.92657 69.757 8.92657C69.545 8.92657 69.342 8.89927 69.1482 8.84475C68.9603 8.79024 68.7938 8.71153 68.6484 8.60847C68.503 8.49944 68.3878 8.36919 68.303 8.21773C68.2182 8.06627 68.1758 7.8936 68.1758 7.69973C68.1758 7.52404 68.2152 7.36349 68.2939 7.21809C68.3787 7.06663 68.4908 6.93638 68.6301 6.82732C68.7695 6.71827 68.9361 6.63345 69.13 6.57287C69.3239 6.51228 69.5359 6.48199 69.7661 6.48199C69.966 6.48199 70.1599 6.50926 70.3477 6.56378C70.5416 6.61831 70.7112 6.69707 70.8566 6.80006C71.002 6.90306 71.1172 7.03028 71.2019 7.18174C71.2928 7.3332 71.3383 7.50586 71.3383 7.69973ZM71.2019 18.2868C71.2019 18.8624 71.0838 19.3046 70.8475 19.6136C70.6173 19.9226 70.2326 20.0771 69.6934 20.0771C69.1845 20.0771 68.824 19.9226 68.612 19.6136C68.406 19.3046 68.303 18.8624 68.303 18.2868V12.7252C68.303 12.1496 68.406 11.7073 68.612 11.3984C68.824 11.0894 69.1845 10.9349 69.6934 10.9349C70.2326 10.9349 70.6173 11.0894 70.8475 11.3984C71.0838 11.7073 71.2019 12.1496 71.2019 12.7252V18.2868Z" fill="white"/>
<path d="M75.3807 15.4787C75.3807 15.8847 75.4109 16.2632 75.4716 16.6147C75.5382 16.9661 75.6472 17.275 75.7987 17.5416C75.9563 17.8021 76.1622 18.0081 76.4167 18.1595C76.6771 18.311 76.9983 18.3867 77.38 18.3867C77.7313 18.3867 78.0251 18.3141 78.2617 18.1687C78.5036 18.0172 78.6975 17.8112 78.8433 17.5507C78.9883 17.2841 79.0914 16.9721 79.1519 16.6147C79.2186 16.2572 79.252 15.8695 79.252 15.4515C79.252 15.1183 79.2279 14.779 79.1791 14.4337C79.131 14.0822 79.0402 13.7642 78.9069 13.4794C78.7735 13.1947 78.5889 12.9614 78.3524 12.7797C78.1159 12.598 77.8072 12.5071 77.4254 12.5071C77.0437 12.5071 76.7196 12.5676 76.453 12.6888C76.1925 12.81 75.9804 12.9948 75.8169 13.2432C75.6593 13.4915 75.5473 13.8036 75.4807 14.1792C75.414 14.5487 75.3807 14.9819 75.3807 15.4787ZM75.3716 12.7251C75.5231 12.4041 75.7169 12.1224 75.9532 11.88C76.1894 11.6377 76.45 11.4347 76.7348 11.2711C77.0195 11.1076 77.3164 10.9864 77.6253 10.9077C77.9406 10.8228 78.2524 10.7804 78.561 10.7804C79.1186 10.7804 79.6219 10.9046 80.0701 11.153C80.5183 11.4014 80.8998 11.7407 81.2147 12.1708C81.5357 12.5949 81.7816 13.0978 81.9514 13.6794C82.1204 14.2549 82.2057 14.8729 82.2057 15.5332C82.2057 16.2178 82.1142 16.8449 81.9328 17.4144C81.7575 17.9839 81.5055 18.4746 81.1782 18.8865C80.8572 19.2925 80.4694 19.6105 80.015 19.8408C79.5668 20.071 79.0674 20.1861 78.516 20.1861C77.8375 20.1861 77.2315 20.0286 76.6984 19.7135C76.1652 19.3985 75.723 18.9562 75.3716 18.3867V21.6583C75.3716 22.2338 75.2534 22.6761 75.0172 22.9851C74.7869 23.294 74.4023 23.4486 73.863 23.4486C73.3541 23.4486 72.9936 23.294 72.7816 22.9851C72.5756 22.6761 72.4727 22.2338 72.4727 21.6583V12.7251C72.4727 12.1496 72.5756 11.7073 72.7816 11.3984C72.9936 11.0894 73.3541 10.9349 73.863 10.9349C74.4023 10.9349 74.7869 11.0894 75.0172 11.3984C75.2534 11.7073 75.3716 12.1496 75.3716 12.7251Z" fill="white"/>
<path d="M85.403 13.3704C85.403 13.6066 85.5062 13.7914 85.7117 13.9247C85.918 14.052 86.2026 14.158 86.5663 14.2428C86.9113 14.3215 87.2657 14.3973 87.6294 14.47C87.9931 14.5427 88.3475 14.6276 88.6926 14.7245C89.0377 14.8153 89.3618 14.9244 89.6651 15.0516C89.9675 15.1788 90.2343 15.3394 90.4646 15.5332C90.6949 15.7211 90.8764 15.9513 91.0097 16.2239C91.1431 16.4905 91.2098 16.8116 91.2098 17.1872C91.2098 17.6597 91.1129 18.0808 90.919 18.4503C90.7251 18.8139 90.4498 19.1228 90.0923 19.3773C89.7411 19.6318 89.32 19.8287 88.8291 19.968C88.3382 20.1074 87.7962 20.18 87.2021 20.1861C86.6391 20.1861 86.0963 20.1498 85.5752 20.0771C85.0548 20.0104 84.5911 19.9044 84.1848 19.759C83.7854 19.6136 83.4643 19.4349 83.2216 19.2228C82.9797 19.0047 82.8587 18.7503 82.8587 18.4595C82.8587 18.205 82.9401 18.0081 83.1038 17.8687C83.2674 17.7295 83.476 17.6597 83.7311 17.6597C83.828 17.6597 83.9428 17.6779 84.0762 17.7143C84.2096 17.7506 84.3546 17.7961 84.512 17.8506C84.6694 17.9051 84.8362 17.9657 85.0122 18.0324C85.1937 18.0929 85.3813 18.1474 85.5752 18.1959C85.8179 18.2626 86.0661 18.3171 86.3204 18.3595C86.581 18.3958 86.8478 18.414 87.1207 18.414C87.2898 18.414 87.4565 18.3988 87.6201 18.3686C87.7838 18.3322 87.9295 18.2807 88.0567 18.2141C88.1901 18.1414 88.2987 18.0505 88.384 17.9415C88.4685 17.8324 88.5197 17.6991 88.5383 17.5416C88.5561 17.5053 88.5716 17.4689 88.5833 17.4325C88.5957 17.3962 88.6019 17.3538 88.6019 17.3054C88.6019 17.1357 88.5228 16.9842 88.3654 16.8509C88.2141 16.7177 87.9986 16.6116 87.7202 16.5329C87.2533 16.4239 86.8082 16.3239 86.384 16.233C85.9606 16.1421 85.5667 16.0452 85.203 15.9422C84.8455 15.8392 84.5182 15.7211 84.2212 15.5877C83.9304 15.4545 83.6823 15.2909 83.476 15.097C83.2767 14.9032 83.1185 14.6699 83.0037 14.3973C82.8944 14.1247 82.8401 13.7945 82.8401 13.4067C82.8401 12.9887 82.9339 12.6161 83.1216 12.2889C83.3155 11.9557 83.5915 11.6771 83.949 11.4529C84.3065 11.2287 84.7392 11.0591 85.2487 10.944C85.7574 10.8228 86.3328 10.7623 86.9749 10.7623C88.1257 10.7623 89.0012 10.9016 89.6015 11.1802C90.2071 11.4529 90.5103 11.8103 90.5103 12.2527C90.5103 12.501 90.4281 12.6919 90.2645 12.8251C90.1009 12.9524 89.9039 13.016 89.6744 13.016C89.5526 13.016 89.4254 12.9948 89.2921 12.9524C89.1649 12.9039 89.0106 12.8524 88.8291 12.7979C88.6469 12.7373 88.4289 12.6858 88.1746 12.6434C87.9264 12.595 87.617 12.5707 87.2479 12.5707C86.9687 12.5707 86.7144 12.5828 86.484 12.607C86.2599 12.6312 86.0661 12.6737 85.9024 12.7342C85.745 12.7949 85.6209 12.8766 85.5302 12.9797C85.4449 13.0826 85.403 13.2129 85.403 13.3704Z" fill="white"/>
<path d="M94.898 16.7055C94.898 16.9903 94.9344 17.2386 95.0073 17.4507C95.0857 17.6628 95.1919 17.8415 95.3253 17.9869C95.4587 18.1263 95.613 18.2323 95.7882 18.3049C95.9705 18.3716 96.1643 18.405 96.3698 18.405C96.6126 18.405 96.846 18.3686 97.0701 18.2959C97.2942 18.2232 97.4912 18.1111 97.661 17.9596C97.8363 17.8082 97.9759 17.6173 98.079 17.3871C98.1814 17.1569 98.2333 16.8873 98.2333 16.5783V12.7251C98.2333 12.1496 98.3365 11.7073 98.542 11.3984C98.7544 11.0894 99.115 10.9349 99.6237 10.9349C100.163 10.9349 100.547 11.0894 100.778 11.3984C101.014 11.7073 101.132 12.1496 101.132 12.7251V18.2868C101.132 18.8623 101.014 19.3046 100.778 19.6135C100.547 19.9226 100.163 20.077 99.6237 20.077C99.115 20.077 98.7544 19.9226 98.542 19.6135C98.3365 19.3046 98.2333 18.8623 98.2333 18.2868C98.1061 18.5655 97.9394 18.8199 97.7331 19.0502C97.5331 19.2804 97.2973 19.4803 97.0244 19.6499C96.7576 19.8135 96.4614 19.9407 96.1341 20.0316C95.8131 20.1225 95.4641 20.1679 95.0888 20.1679C94.6832 20.1679 94.2924 20.0982 93.9162 19.9589C93.5471 19.8135 93.2199 19.6014 92.9353 19.3227C92.6507 19.0381 92.4234 18.6866 92.2536 18.2686C92.0838 17.8506 91.9993 17.3629 91.9993 16.8055V12.7251C91.9993 12.1496 92.1024 11.7073 92.3079 11.3984C92.5204 11.0894 92.8802 10.9349 93.3897 10.9349C93.9287 10.9349 94.3133 11.0894 94.5436 11.3984C94.7801 11.7073 94.898 12.1496 94.898 12.7251V16.7055Z" fill="white"/>
<path d="M102.448 12.7251C102.448 12.1496 102.551 11.7073 102.757 11.3984C102.969 11.0894 103.33 10.9349 103.838 10.9349C104.378 10.9349 104.763 11.0894 104.993 11.3984C105.229 11.7073 105.348 12.1496 105.348 12.7251C105.468 12.4343 105.632 12.1708 105.838 11.9345C106.05 11.6922 106.29 11.4862 106.556 11.3166C106.829 11.147 107.123 11.0167 107.437 10.9258C107.752 10.8289 108.08 10.7804 108.419 10.7804C108.734 10.7804 109.043 10.8228 109.346 10.9077C109.655 10.9864 109.94 11.1166 110.2 11.2984C110.466 11.4741 110.7 11.6982 110.9 11.9709C111.1 12.2435 111.254 12.5707 111.364 12.9523C111.551 12.5465 111.772 12.2042 112.027 11.9255C112.281 11.6468 112.557 11.4226 112.853 11.253C113.15 11.0833 113.46 10.9622 113.781 10.8894C114.108 10.8168 114.435 10.7804 114.762 10.7804C115.15 10.7804 115.519 10.8501 115.871 10.9894C116.228 11.1287 116.54 11.3408 116.807 11.6256C117.08 11.9042 117.294 12.2587 117.452 12.6888C117.616 13.1129 117.697 13.6097 117.697 14.1792V18.2868C117.697 18.8623 117.579 19.3046 117.343 19.6135C117.113 19.9226 116.728 20.077 116.189 20.077C115.68 20.077 115.319 19.9226 115.108 19.6135C114.901 19.3046 114.798 18.8623 114.798 18.2868V14.3064C114.798 14.0338 114.762 13.7914 114.69 13.5794C114.617 13.3613 114.514 13.1796 114.38 13.0342C114.253 12.8827 114.102 12.7706 113.926 12.6979C113.751 12.6191 113.562 12.5797 113.363 12.5797C113.114 12.5797 112.878 12.6191 112.654 12.6979C112.43 12.7766 112.233 12.8978 112.063 13.0614C111.9 13.225 111.766 13.434 111.663 13.6884C111.566 13.9429 111.518 14.2489 111.518 14.6063V18.2868C111.518 18.8623 111.399 19.3046 111.164 19.6135C110.933 19.9226 110.549 20.077 110.009 20.077C109.5 20.077 109.14 19.9226 108.928 19.6135C108.722 19.3046 108.618 18.8623 108.618 18.2868V14.479C108.618 13.8551 108.488 13.3825 108.228 13.0614C107.973 12.7403 107.625 12.5797 107.183 12.5797C106.922 12.5797 106.68 12.6222 106.456 12.707C106.232 12.7918 106.038 12.916 105.874 13.0796C105.71 13.2432 105.58 13.4461 105.483 13.6884C105.392 13.9308 105.348 14.2095 105.348 14.5245V18.2868C105.348 18.8623 105.229 19.3046 104.993 19.6135C104.763 19.9226 104.378 20.077 103.838 20.077C103.33 20.077 102.969 19.9226 102.757 19.6135C102.551 19.3046 102.448 18.8623 102.448 18.2868V12.7251Z" fill="white"/>
<path d="M13.4226 18.5261C10.8529 18.5261 8.76978 16.443 8.76978 13.8733C8.76978 11.3036 10.8529 9.2204 13.4226 9.2204C15.9923 9.2204 18.0755 11.3036 18.0755 13.8733C18.0755 16.443 15.9923 18.5261 13.4226 18.5261Z" fill="white"/>
<path d="M4.40869 15.4626C3.06033 15.7004 2.1361 17.0029 2.6537 18.2705C3.37632 20.0401 4.52916 21.6168 6.02375 22.8489C8.16089 24.6105 10.8564 25.5519 13.6257 25.5036C16.3949 25.4553 19.056 24.4204 21.1304 22.5851C22.581 21.3017 23.6782 19.6857 24.3386 17.892C24.8117 16.6071 23.8425 15.3376 22.4867 15.1471C21.1309 14.9565 19.9135 15.9434 19.2438 17.1376C18.8808 17.7849 18.4096 18.3722 17.845 18.8717C16.6548 19.9247 15.128 20.5184 13.5392 20.5462C11.9503 20.5739 10.4037 20.0338 9.17754 19.023C8.59585 18.5435 8.10443 17.9731 7.71904 17.3388C7.00809 16.1687 5.75705 15.2249 4.40869 15.4626Z" fill="white"/>
<path d="M24.9646 15.3269C25.024 14.8506 25.0546 14.3655 25.0546 13.8732C25.0546 7.44898 19.8467 2.24109 13.4224 2.24109C6.99817 2.24109 1.79028 7.44898 1.79028 13.8732C1.79028 14.505 1.84065 15.125 1.93759 15.7295C2.47188 14.9981 3.30577 14.4759 4.20648 14.3171C5.18101 14.1453 6.06671 14.3816 6.81558 14.8234C6.77134 14.5131 6.74845 14.1958 6.74845 13.8732C6.74845 10.1873 9.73651 7.19925 13.4224 7.19925C17.1083 7.19925 20.0964 10.1873 20.0964 13.8732C20.0964 14.1163 20.0834 14.3563 20.0581 14.5926C20.7912 14.1247 21.6682 13.8574 22.6483 13.9952C23.5538 14.1225 24.4051 14.6149 24.9646 15.3269Z" fill="white"/>
</svg>
