<svg width="17" height="12" viewBox="0 0 17 12" fill="none" xmlns="http://www.w3.org/2000/svg">
<path d="M15.9612 2.16323C15.8687 1.81987 15.6878 1.50674 15.4366 1.255C15.1855 1.00325 14.8727 0.821684 14.5296 0.72836C13.2572 0.378985 8.16689 0.373297 8.16689 0.373297C8.16689 0.373297 3.07739 0.36761 1.80421 0.701547C1.46127 0.799166 1.14919 0.983303 0.897916 1.23628C0.646645 1.48926 0.464626 1.80258 0.369331 2.14617C0.0337689 3.41855 0.0305188 6.05755 0.0305188 6.05755C0.0305188 6.05755 0.0272688 8.70955 0.360394 9.96892C0.547269 10.6652 1.09571 11.2153 1.79283 11.403C3.07821 11.7524 8.15471 11.758 8.15471 11.758C8.15471 11.758 13.245 11.7637 14.5174 11.4306C14.8607 11.3374 15.1737 11.1563 15.4255 10.9051C15.6773 10.6538 15.8591 10.3412 15.9531 9.99817C16.2895 8.72661 16.2919 6.08842 16.2919 6.08842C16.2919 6.08842 16.3081 3.43561 15.9612 2.16323ZM6.53864 8.50236L6.54271 3.62736L10.7734 6.06892L6.53864 8.50236Z" fill="#FF3E54"/>
</svg>
